<svg viewBox="0 0 635 698" fill="none" xmlns="http://www.w3.org/2000/svg">
<g opacity="0.5">
<g filter="url(#filter0_f)">
<path d="M271.146 670.941L250.845 687.05L211.717 682.659L232.018 666.55L271.146 670.941Z" fill="black"/>
</g>
<g filter="url(#filter1_f)">
<path d="M194.797 642.888L161.387 669.404L97 662.176L130.41 635.659L194.797 642.888Z" fill="black"/>
</g>
<g filter="url(#filter2_f)">
<path d="M152.787 607.731L107.435 643.665L20 633.862L65.3704 597.928L152.787 607.731Z" fill="black"/>
</g>
<g filter="url(#filter3_f)">
<path d="M63.0336 659.755L50.876 669.404L27.439 666.77L39.5965 657.121L63.0336 659.755Z" fill="black"/>
</g>
<g filter="url(#filter4_f)">
<path d="M507.544 639.282L209.036 606.787L254.797 583.189L541.691 613.508L507.544 639.282Z" fill="black"/>
</g>
</g>
<path d="M255.863 492.722L236.158 508.35L235.447 469.463L255.152 453.824L255.863 492.722Z" fill="#CE9B33"/>
<path d="M255.152 453.824L235.447 469.463L197.479 465.198L217.174 449.559L255.152 453.824Z" fill="#C59431"/>
<path d="M197.479 465.198L235.447 469.463L236.158 508.35L198.19 504.085L197.479 465.198Z" fill="#BF8F2F"/>
<path d="M255.152 453.824L235.447 469.463L234.736 430.586L254.441 414.958L255.152 453.824Z" fill="#1B1B1B"/>
<path d="M254.441 414.957L234.736 430.586L196.768 426.321L216.463 410.692L254.441 414.957Z" fill="#191919"/>
<path d="M294.541 535.864L274.836 551.503L274.125 512.615L293.831 496.987L294.541 535.864Z" fill="#6FA76F"/>
<path d="M293.83 496.987L274.125 512.615L236.158 508.35L255.863 492.722L293.83 496.987Z" fill="#6BA06B"/>
<path d="M236.158 508.351L274.125 512.616L274.836 551.503L236.869 547.238L236.158 508.351Z" fill="#689B68"/>
<path d="M274.836 551.503L312.793 555.758L313.504 594.656L275.547 590.39L274.836 551.503Z" fill="#8FBF60"/>
<path d="M333.199 579.017L313.504 594.656L312.793 555.758L332.488 540.129L333.199 579.017Z" fill="#9BCE67"/>
<path d="M332.488 540.129L312.793 555.758L274.836 551.503L294.541 535.864L332.488 540.129Z" fill="#94C563"/>
<path d="M332.488 540.129L312.793 555.757L312.083 516.88L331.777 501.242L332.488 540.129Z" fill="#1B1B1B"/>
<path d="M331.777 501.242L312.083 516.881L274.125 512.615L293.831 496.987L331.777 501.242Z" fill="#191919"/>
<path d="M293.83 496.987L274.125 512.616L273.425 473.728L293.119 458.089L293.83 496.987Z" fill="#1B1B1B"/>
<path d="M293.12 458.089L273.425 473.728L235.447 469.463L255.152 453.824L293.12 458.089Z" fill="#191919"/>
<path d="M331.777 501.242L312.082 516.88L311.372 477.993L331.077 462.354L331.777 501.242Z" fill="#1B1B1B"/>
<path d="M331.077 462.354L311.372 477.993L273.425 473.728L293.119 458.089L331.077 462.354Z" fill="#191919"/>
<path d="M371.177 583.282L351.472 598.921L350.761 560.023L370.466 544.395L371.177 583.282Z" fill="#6294F5"/>
<path d="M370.466 544.394L350.761 560.023L312.793 555.758L332.488 540.129L370.466 544.394Z" fill="#5E8DEA"/>
<path d="M216.463 410.692L196.768 426.321L196.057 387.433L215.763 371.794L216.463 410.692Z" fill="#CE3300"/>
<path d="M215.763 371.794L196.058 387.433L158.1 383.168L177.795 367.54L215.763 371.794Z" fill="#C53100"/>
<path d="M158.1 383.168L196.058 387.433L196.768 426.321L158.811 422.066L158.1 383.168Z" fill="#BF2F00"/>
<path d="M215.763 371.794L196.057 387.433L195.347 348.545L215.052 332.907L215.763 371.794Z" fill="#9B33CE"/>
<path d="M215.052 332.907L195.347 348.545L157.389 344.28L177.084 328.642L215.052 332.907Z" fill="#9431C5"/>
<path d="M254.441 414.958L234.736 430.586L234.025 391.698L253.73 376.06L254.441 414.958Z" fill="#1B1B1B"/>
<path d="M253.73 376.06L234.025 391.698L196.057 387.433L215.763 371.794L253.73 376.06Z" fill="#191919"/>
<path d="M293.12 458.089L273.425 473.728L272.714 434.851L292.409 419.223L293.12 458.089Z" fill="#1B1B1B"/>
<path d="M292.409 419.223L272.714 434.851L234.736 430.586L254.441 414.958L292.409 419.223Z" fill="#191919"/>
<path d="M370.466 544.394L350.761 560.023L350.05 521.146L369.755 505.507L370.466 544.394Z" fill="#1B1B1B"/>
<path d="M369.755 505.507L350.05 521.145L312.083 516.88L331.777 501.242L369.755 505.507Z" fill="#191919"/>
<path d="M409.134 587.547L389.439 603.175L388.729 564.288L408.423 548.649L409.134 587.547Z" fill="#6294F5"/>
<path d="M408.423 548.649L388.729 564.288L350.761 560.023L370.466 544.395L408.423 548.649Z" fill="#5E8DEA"/>
<path d="M214.341 294.03L194.636 309.658L156.679 305.393L176.373 289.765L214.341 294.03Z" fill="#9431C5"/>
<path d="M215.052 332.907L195.347 348.546L194.636 309.658L214.341 294.03L215.052 332.907Z" fill="#9B33CE"/>
<path d="M253.019 337.172L233.314 352.81L195.347 348.545L215.052 332.907L253.019 337.172Z" fill="#191919"/>
<path d="M253.73 376.059L234.025 391.698L233.314 352.811L253.019 337.172L253.73 376.059Z" fill="#1B1B1B"/>
<path d="M291.698 380.325L272.003 395.963L234.025 391.698L253.73 376.06L291.698 380.325Z" fill="#191919"/>
<path d="M292.409 419.223L272.714 434.851L272.003 395.963L291.698 380.325L292.409 419.223Z" fill="#1B1B1B"/>
<path d="M331.077 462.354L311.372 477.993L310.661 439.116L330.366 423.477L331.077 462.354Z" fill="#1B1B1B"/>
<path d="M330.366 423.477L310.661 439.116L272.714 434.851L292.409 419.223L330.366 423.477Z" fill="#191919"/>
<path d="M369.755 505.507L350.05 521.145L349.339 482.247L369.044 466.619L369.755 505.507Z" fill="#1B1B1B"/>
<path d="M369.044 466.62L349.339 482.248L311.372 477.993L331.077 462.354L369.044 466.62Z" fill="#191919"/>
<path d="M407.712 509.772L388.018 525.4L350.05 521.146L369.755 505.507L407.712 509.772Z" fill="#191919"/>
<path d="M408.423 548.649L388.728 564.288L388.018 525.4L407.712 509.772L408.423 548.649Z" fill="#1B1B1B"/>
<path d="M446.391 552.914L426.686 568.553L388.729 564.288L408.423 548.649L446.391 552.914Z" fill="#5E8DEA"/>
<path d="M447.102 591.812L427.396 607.44L426.686 568.553L446.391 552.914L447.102 591.812Z" fill="#6294F5"/>
<path d="M213.63 255.142L193.925 270.781L155.968 266.516L175.662 250.877L213.63 255.142Z" fill="#9431C5"/>
<path d="M214.341 294.03L194.636 309.658L193.925 270.781L213.63 255.142L214.341 294.03Z" fill="#9B33CE"/>
<path d="M253.019 337.172L233.314 352.81L232.614 313.923L252.308 298.284L253.019 337.172Z" fill="#1B1B1B"/>
<path d="M252.308 298.284L232.614 313.923L194.636 309.658L214.341 294.03L252.308 298.284Z" fill="#191919"/>
<path d="M290.987 341.437L271.292 357.065L233.314 352.811L253.019 337.172L290.987 341.437Z" fill="#191919"/>
<path d="M291.698 380.325L272.003 395.963L271.292 357.065L290.987 341.437L291.698 380.325Z" fill="#1B1B1B"/>
<path d="M329.655 384.59L309.95 400.218L272.003 395.963L291.698 380.325L329.655 384.59Z" fill="#191919"/>
<path d="M330.366 423.477L310.661 439.116L309.95 400.218L329.655 384.59L330.366 423.477Z" fill="#1B1B1B"/>
<path d="M368.333 427.742L348.639 443.381L310.661 439.116L330.366 423.477L368.333 427.742Z" fill="#191919"/>
<path d="M369.044 466.619L349.339 482.247L348.639 443.381L368.334 427.742L369.044 466.619Z" fill="#1B1B1B"/>
<path d="M407.001 470.884L387.307 486.512L349.339 482.247L369.044 466.619L407.001 470.884Z" fill="#191919"/>
<path d="M407.712 509.772L388.018 525.4L387.307 486.512L407.002 470.884L407.712 509.772Z" fill="#1B1B1B"/>
<path d="M446.391 552.914L426.686 568.553L425.975 529.665L445.68 514.037L446.391 552.914Z" fill="#1B1B1B"/>
<path d="M445.68 514.037L425.975 529.665L388.018 525.4L407.712 509.772L445.68 514.037Z" fill="#191919"/>
<path d="M213.63 255.142L193.925 270.781L193.214 231.893L212.919 216.265L213.63 255.142Z" fill="#9B33CE"/>
<path d="M212.919 216.265L193.214 231.893L155.257 227.628L174.951 212L212.919 216.265Z" fill="#9431C5"/>
<path d="M484.348 557.179L464.653 572.818L426.686 568.553L446.391 552.914L484.348 557.179Z" fill="#5E8DEA"/>
<path d="M485.059 596.067L465.364 611.705L464.653 572.818L484.348 557.179L485.059 596.067Z" fill="#669AFF"/>
<path d="M464.653 572.818L426.686 568.553L388.728 564.287L350.761 560.022L312.793 555.757L313.504 594.655L351.472 598.92L389.439 603.175L427.396 607.44L465.364 611.705L464.653 572.818Z" fill="#5B88E2"/>
<path d="M251.598 259.407L231.903 275.046L193.925 270.781L213.63 255.142L251.598 259.407Z" fill="#191919"/>
<path d="M252.309 298.284L232.614 313.923L231.903 275.046L251.598 259.407L252.309 298.284Z" fill="#1B1B1B"/>
<path d="M290.276 302.549L270.581 318.188L232.614 313.923L252.308 298.284L290.276 302.549Z" fill="#191919"/>
<path d="M290.987 341.437L271.292 357.065L270.582 318.188L290.276 302.549L290.987 341.437Z" fill="#1B1B1B"/>
<path d="M329.655 384.59L309.95 400.218L309.239 361.33L328.944 345.702L329.655 384.59Z" fill="#1B1B1B"/>
<path d="M328.944 345.702L309.239 361.33L271.292 357.065L290.987 341.437L328.944 345.702Z" fill="#191919"/>
<path d="M368.334 427.742L348.639 443.381L347.928 404.483L367.623 388.854L368.334 427.742Z" fill="#1B1B1B"/>
<path d="M367.623 388.855L347.928 404.483L309.95 400.218L329.655 384.59L367.623 388.855Z" fill="#191919"/>
<path d="M407.001 470.884L387.307 486.513L386.596 447.636L406.301 432.007L407.001 470.884Z" fill="#1B1B1B"/>
<path d="M406.301 432.007L386.596 447.635L348.639 443.381L368.334 427.742L406.301 432.007Z" fill="#191919"/>
<path d="M444.969 475.139L425.264 490.778L387.307 486.512L407.002 470.884L444.969 475.139Z" fill="#191919"/>
<path d="M445.68 514.037L425.975 529.665L425.264 490.778L444.969 475.139L445.68 514.037Z" fill="#1B1B1B"/>
<path d="M212.919 216.265L193.214 231.893L192.503 193.006L212.208 177.367L212.919 216.265Z" fill="#9B33CE"/>
<path d="M195.347 348.546L194.636 309.658L193.925 270.781L193.214 231.893L192.503 193.006L154.546 188.741L155.257 227.628L155.968 266.516L156.679 305.393L157.389 344.28L158.1 383.168L196.057 387.433L195.347 348.546Z" fill="#8F2FBF"/>
<path d="M212.208 177.367L192.503 193.006L154.546 188.741L174.241 173.112L212.208 177.367Z" fill="#9431C5"/>
<path d="M484.348 557.179L464.653 572.818L463.942 533.93L483.637 518.302L484.348 557.179Z" fill="#1B1B1B"/>
<path d="M483.637 518.302L463.942 533.93L425.975 529.665L445.68 514.037L483.637 518.302Z" fill="#191919"/>
<path d="M251.598 259.407L231.903 275.046L231.192 236.158L250.887 220.52L251.598 259.407Z" fill="#1B1B1B"/>
<path d="M250.887 220.52L231.192 236.158L193.214 231.893L212.919 216.265L250.887 220.52Z" fill="#191919"/>
<path d="M290.276 302.549L270.581 318.188L269.871 279.311L289.565 263.672L290.276 302.549Z" fill="#1B1B1B"/>
<path d="M289.565 263.672L269.871 279.311L231.903 275.046L251.598 259.407L289.565 263.672Z" fill="#191919"/>
<path d="M367.623 388.855L347.928 404.483L347.217 365.595L366.912 349.957L367.623 388.855Z" fill="#1B1B1B"/>
<path d="M366.912 349.957L347.217 365.595L309.239 361.33L328.944 345.702L366.912 349.957Z" fill="#191919"/>
<path d="M444.258 436.272L424.564 451.901L386.596 447.636L406.301 432.007L444.258 436.272Z" fill="#191919"/>
<path d="M444.969 475.139L425.264 490.778L424.563 451.901L444.258 436.272L444.969 475.139Z" fill="#1B1B1B"/>
<path d="M212.208 177.367L192.503 193.006L191.803 154.129L211.498 138.5L212.208 177.367Z" fill="#6F37A7"/>
<path d="M211.497 138.5L191.803 154.129L153.835 149.864L173.54 134.235L211.497 138.5Z" fill="#4D1880"/>
<path d="M153.835 149.863L191.803 154.128L192.503 193.005L154.546 188.74L153.835 149.863Z" fill="#68339B"/>
<path d="M482.926 479.404L463.232 495.043L425.264 490.778L444.969 475.139L482.926 479.404Z" fill="#191919"/>
<path d="M483.637 518.302L463.943 533.931L463.232 495.043L482.926 479.404L483.637 518.302Z" fill="#1B1B1B"/>
<path d="M250.887 220.52L231.192 236.159L230.481 197.271L250.176 181.632L250.887 220.52Z" fill="#1B1B1B"/>
<path d="M250.176 181.632L230.481 197.271L192.503 193.006L212.208 177.367L250.176 181.632Z" fill="#191919"/>
<path d="M463.942 533.93L501.91 538.195L502.621 577.083L464.653 572.818L463.942 533.93Z" fill="#780077"/>
<path d="M522.326 561.444L502.621 577.083L501.91 538.195L521.615 522.557L522.326 561.444Z" fill="#9F009F"/>
<path d="M521.615 522.557L501.91 538.196L463.942 533.93L483.637 518.302L521.615 522.557Z" fill="#7B007A"/>
<path d="M482.926 479.404L463.232 495.043L462.521 456.166L482.226 440.538L482.926 479.404Z" fill="#1B1B1B"/>
<path d="M482.226 440.538L462.521 456.166L424.563 451.901L444.258 436.272L482.226 440.538Z" fill="#191919"/>
<path d="M250.176 181.632L230.481 197.271L229.771 158.394L249.476 142.766L250.176 181.632Z" fill="#1B1B1B"/>
<path d="M249.476 142.766L229.77 158.394L191.803 154.129L211.498 138.5L249.476 142.766Z" fill="#191919"/>
<path d="M521.615 522.557L501.91 538.196L501.199 499.308L520.904 483.669L521.615 522.557Z" fill="#1B1B1B"/>
<path d="M520.904 483.669L501.199 499.308L463.232 495.043L482.926 479.404L520.904 483.669Z" fill="#191919"/>
<path d="M559.583 526.822L539.878 542.461L539.177 503.563L558.872 487.935L559.583 526.822Z" fill="#FF6600"/>
<path d="M558.872 487.935L539.177 503.563L501.199 499.308L520.904 483.669L558.872 487.935Z" fill="#EA5E00"/>
<path d="M501.199 499.308L539.177 503.562L539.878 542.46L501.91 538.195L501.199 499.308Z" fill="#E25B00"/>
<path d="M249.476 142.765L229.77 158.393L229.06 119.506L248.754 103.867L249.476 142.765Z" fill="#1B1B1B"/>
<path d="M406.301 432.007L386.596 447.635L385.885 408.748L405.59 393.12L406.301 432.007Z" fill="#1B1B1B"/>
<path d="M405.59 393.12L385.885 408.748L347.928 404.483L367.623 388.854L405.59 393.12Z" fill="#191919"/>
<path d="M328.944 345.702L309.239 361.33L308.539 322.453L328.233 306.814L328.944 345.702Z" fill="#1B1B1B"/>
<path d="M328.233 306.814L308.539 322.453L270.582 318.188L290.276 302.549L328.233 306.814Z" fill="#191919"/>
<path d="M328.233 306.815L308.539 322.453L307.828 283.566L327.523 267.938L328.233 306.815Z" fill="#1B1B1B"/>
<path d="M327.522 267.937L307.828 283.566L269.871 279.311L289.565 263.672L327.522 267.937Z" fill="#191919"/>
<path d="M366.912 349.957L347.217 365.595L346.506 326.708L366.201 311.08L366.912 349.957Z" fill="#1B1B1B"/>
<path d="M366.201 311.08L346.506 326.708L308.539 322.453L328.233 306.814L366.201 311.08Z" fill="#191919"/>
<path d="M405.59 393.12L385.885 408.748L385.174 369.86L404.879 354.222L405.59 393.12Z" fill="#1B1B1B"/>
<path d="M404.879 354.222L385.174 369.861L347.217 365.596L366.912 349.957L404.879 354.222Z" fill="#191919"/>
<path d="M443.548 397.374L423.853 413.013L385.885 408.748L405.59 393.12L443.548 397.374Z" fill="#191919"/>
<path d="M444.258 436.273L424.564 451.901L423.853 413.013L443.547 397.375L444.258 436.273Z" fill="#1B1B1B"/>
<path d="M365.49 272.203L345.796 287.831L307.828 283.566L327.523 267.938L365.49 272.203Z" fill="#191919"/>
<path d="M366.201 311.08L346.506 326.708L345.795 287.831L365.49 272.203L366.201 311.08Z" fill="#1B1B1B"/>
<path d="M404.169 315.345L384.464 330.973L346.506 326.708L366.201 311.08L404.169 315.345Z" fill="#191919"/>
<path d="M404.879 354.222L385.174 369.86L384.463 330.973L404.169 315.345L404.879 354.222Z" fill="#1B1B1B"/>
<path d="M443.547 397.374L423.853 413.013L423.142 374.125L442.837 358.487L443.547 397.374Z" fill="#1B1B1B"/>
<path d="M442.837 358.487L423.142 374.125L385.174 369.86L404.879 354.222L442.837 358.487Z" fill="#191919"/>
<path d="M481.515 401.64L461.81 417.278L423.853 413.013L443.547 397.375L481.515 401.64Z" fill="#191919"/>
<path d="M482.226 440.538L462.521 456.166L461.81 417.278L481.515 401.64L482.226 440.538Z" fill="#1B1B1B"/>
<path d="M442.837 358.487L423.142 374.126L422.431 335.238L442.126 319.61L442.837 358.487Z" fill="#1B1B1B"/>
<path d="M442.126 319.61L422.431 335.238L384.463 330.973L404.169 315.345L442.126 319.61Z" fill="#191919"/>
<path d="M481.515 401.64L461.81 417.278L461.099 378.38L480.804 362.752L481.515 401.64Z" fill="#1B1B1B"/>
<path d="M480.804 362.752L461.099 378.38L423.142 374.125L442.837 358.487L480.804 362.752Z" fill="#191919"/>
<path d="M289.565 263.672L269.871 279.311L269.16 240.423L288.865 224.785L289.565 263.672Z" fill="#1B1B1B"/>
<path d="M288.865 224.785L269.16 240.423L231.192 236.158L250.887 220.52L288.865 224.785Z" fill="#191919"/>
<path d="M288.865 224.785L269.16 240.423L268.449 201.536L288.154 185.897L288.865 224.785Z" fill="#1B1B1B"/>
<path d="M288.154 185.897L268.449 201.536L230.481 197.27L250.176 181.632L288.154 185.897Z" fill="#191919"/>
<path d="M327.523 267.937L307.828 283.566L307.117 244.688L326.812 229.05L327.523 267.937Z" fill="#1B1B1B"/>
<path d="M326.812 229.05L307.117 244.688L269.16 240.423L288.865 224.785L326.812 229.05Z" fill="#191919"/>
<path d="M365.49 272.202L345.795 287.831L345.084 248.954L364.779 233.315L365.49 272.202Z" fill="#1B1B1B"/>
<path d="M364.779 233.315L345.085 248.954L307.117 244.688L326.812 229.05L364.779 233.315Z" fill="#191919"/>
<path d="M404.168 315.345L384.463 330.973L383.763 292.096L403.458 276.457L404.168 315.345Z" fill="#1B1B1B"/>
<path d="M403.458 276.457L383.763 292.095L345.795 287.83L365.49 272.202L403.458 276.457Z" fill="#191919"/>
<path d="M520.904 483.669L501.199 499.308L500.488 460.431L520.193 444.803L520.904 483.669Z" fill="#1B1B1B"/>
<path d="M520.194 444.803L500.488 460.431L462.521 456.166L482.226 440.538L520.194 444.803Z" fill="#191919"/>
<path d="M520.194 444.803L500.488 460.431L499.788 421.543L519.483 405.905L520.194 444.803Z" fill="#1B1B1B"/>
<path d="M519.483 405.905L499.788 421.543L461.81 417.278L481.515 401.64L519.483 405.905Z" fill="#191919"/>
<path d="M558.872 487.935L539.177 503.563L538.467 464.696L558.161 449.058L558.872 487.935Z" fill="#1B1B1B"/>
<path d="M558.161 449.057L538.467 464.696L500.489 460.431L520.194 444.803L558.161 449.057Z" fill="#191919"/>
<path d="M596.829 492.199L577.124 507.828L576.413 468.961L596.118 453.322L596.829 492.199Z" fill="#F90000"/>
<path d="M596.118 453.323L576.413 468.961L538.467 464.696L558.161 449.058L596.118 453.323Z" fill="#EA0000"/>
<path d="M538.467 464.696L576.413 468.961L577.124 507.828L539.177 503.563L538.467 464.696Z" fill="#E20000"/>
<path d="M288.154 185.897L268.449 201.536L267.738 162.659L287.443 147.02L288.154 185.897Z" fill="#1B1B1B"/>
<path d="M287.443 147.02L267.738 162.658L229.771 158.393L249.476 142.765L287.443 147.02Z" fill="#191919"/>
<path d="M326.101 190.162L306.406 205.79L268.449 201.536L288.154 185.897L326.101 190.162Z" fill="#191919"/>
<path d="M326.812 229.05L307.117 244.688L306.406 205.79L326.101 190.162L326.812 229.05Z" fill="#1B1B1B"/>
<path d="M287.443 147.02L267.738 162.659L267.027 123.771L286.732 108.132L287.443 147.02Z" fill="#1B1B1B"/>
<path d="M286.732 108.132L267.027 123.771L229.06 119.506L248.754 103.867L286.732 108.132Z" fill="#191919"/>
<path d="M325.39 151.285L305.695 166.924L267.738 162.659L287.443 147.02L325.39 151.285Z" fill="#191919"/>
<path d="M326.101 190.162L306.406 205.79L305.695 166.924L325.39 151.285L326.101 190.162Z" fill="#1B1B1B"/>
<path d="M364.779 233.315L345.085 248.953L344.374 210.055L364.079 194.427L364.779 233.315Z" fill="#1B1B1B"/>
<path d="M364.079 194.427L344.374 210.055L326.101 190.162L364.079 194.427Z" fill="#191919"/>
<path d="M402.747 237.58L383.052 253.208L345.085 248.954L364.779 233.315L402.747 237.58Z" fill="#191919"/>
<path d="M403.458 276.457L383.763 292.096L383.052 253.208L402.747 237.58L403.458 276.457Z" fill="#1B1B1B"/>
<path d="M441.415 280.722L421.72 296.361L383.763 292.096L403.458 276.457L441.415 280.722Z" fill="#191919"/>
<path d="M442.126 319.61L422.431 335.238L421.72 296.361L441.415 280.722L442.126 319.61Z" fill="#1B1B1B"/>
<path d="M480.093 323.864L460.388 339.503L422.431 335.238L442.126 319.609L480.093 323.864Z" fill="#191919"/>
<path d="M480.804 362.752L461.099 378.38L460.388 339.503L480.093 323.864L480.804 362.752Z" fill="#1B1B1B"/>
<path d="M519.483 405.904L499.788 421.543L499.077 382.645L518.772 367.017L519.483 405.904Z" fill="#1B1B1B"/>
<path d="M518.772 367.017L499.077 382.645L461.099 378.38L480.804 362.752L518.772 367.017Z" fill="#191919"/>
<path d="M286.732 108.132L267.027 123.771L266.327 84.8728L286.022 69.2446L286.732 108.132Z" fill="#1B1B1B"/>
<path d="M286.022 69.2446L266.327 84.8728L228.349 80.6077L248.054 64.9795L286.022 69.2446Z" fill="#191919"/>
<path d="M558.161 449.057L538.466 464.696L537.756 425.808L557.45 410.169L558.161 449.057Z" fill="#1B1B1B"/>
<path d="M557.45 410.169L537.756 425.808L499.788 421.543L519.483 405.904L557.45 410.169Z" fill="#191919"/>
<path d="M325.39 151.285L305.695 166.924L304.984 128.026L324.679 112.397L325.39 151.285Z" fill="#1B1B1B"/>
<path d="M324.679 112.397L304.985 128.026L267.027 123.771L286.732 108.132L324.679 112.397Z" fill="#191919"/>
<path d="M363.368 155.55L343.663 171.189L305.695 166.924L325.39 151.285L363.368 155.55Z" fill="#191919"/>
<path d="M364.079 194.427L344.374 210.055L343.663 171.188L363.368 155.55L364.079 194.427Z" fill="#1B1B1B"/>
<path d="M402.747 237.58L383.052 253.208L382.341 214.321L402.036 198.692L402.747 237.58Z" fill="#1B1B1B"/>
<path d="M402.036 198.692L382.341 214.321L344.374 210.055L364.079 194.427L402.036 198.692Z" fill="#191919"/>
<path d="M440.704 241.845L421.009 257.473L383.052 253.208L402.747 237.58L440.704 241.845Z" fill="#191919"/>
<path d="M441.415 280.722L421.72 296.36L421.01 257.473L440.704 241.845L441.415 280.722Z" fill="#1B1B1B"/>
<path d="M480.093 323.864L460.388 339.503L459.677 300.626L479.383 284.987L480.093 323.864Z" fill="#1B1B1B"/>
<path d="M479.383 284.987L459.677 300.626L421.72 296.361L441.415 280.722L479.383 284.987Z" fill="#191919"/>
<path d="M518.061 328.129L498.366 343.768L460.388 339.503L480.093 323.864L518.061 328.129Z" fill="#191919"/>
<path d="M518.772 367.017L499.077 382.645L498.366 343.768L518.061 328.129L518.772 367.017Z" fill="#1B1B1B"/>
<path d="M286.021 69.245L266.327 84.8732L265.616 45.9961L285.311 30.3574L286.021 69.245Z" fill="#6294F5"/>
<path d="M227.638 41.731L265.616 45.996L266.327 84.8731L228.349 80.6081L227.638 41.731Z" fill="#5B88E2"/>
<path d="M285.311 30.3574L265.616 45.996L227.638 41.7309L247.343 26.0923L285.311 30.3574Z" fill="#3466CA"/>
<path d="M556.739 371.282L537.045 386.91L499.077 382.645L518.772 367.017L556.739 371.282Z" fill="#191919"/>
<path d="M557.45 410.17L537.756 425.808L537.045 386.91L556.74 371.282L557.45 410.17Z" fill="#1B1B1B"/>
<path d="M323.979 73.4993L304.274 89.1379L266.327 84.8728L286.022 69.2446L323.979 73.4993Z" fill="#191919"/>
<path d="M324.679 112.398L304.985 128.026L304.274 89.1382L323.979 73.4995L324.679 112.398Z" fill="#1B1B1B"/>
<path d="M595.407 414.435L575.702 430.063L537.756 425.808L557.45 410.169L595.407 414.435Z" fill="#191919"/>
<path d="M596.118 453.322L576.413 468.961L575.702 430.063L595.408 414.435L596.118 453.322Z" fill="#1B1B1B"/>
<path d="M363.368 155.55L343.663 171.189L342.952 132.291L362.657 116.663L363.368 155.55Z" fill="#1B1B1B"/>
<path d="M362.657 116.663L342.952 132.291L304.984 128.026L324.679 112.397L362.657 116.663Z" fill="#191919"/>
<path d="M402.036 198.693L382.341 214.321L381.631 175.444L401.325 159.815L402.036 198.693Z" fill="#1B1B1B"/>
<path d="M401.325 159.815L381.63 175.443L343.663 171.188L363.368 155.55L401.325 159.815Z" fill="#191919"/>
<path d="M440.704 241.845L421.009 257.473L420.299 218.585L440.004 202.947L440.704 241.845Z" fill="#1B1B1B"/>
<path d="M440.004 202.947L420.298 218.586L382.341 214.321L402.036 198.692L440.004 202.947Z" fill="#191919"/>
<path d="M478.672 246.099L458.977 261.738L421.01 257.473L440.704 241.845L478.672 246.099Z" fill="#191919"/>
<path d="M479.383 284.987L459.677 300.626L458.977 261.738L478.672 246.1L479.383 284.987Z" fill="#1B1B1B"/>
<path d="M517.35 289.252L497.656 304.881L459.677 300.626L479.383 284.987L517.35 289.252Z" fill="#191919"/>
<path d="M518.061 328.129L498.366 343.768L497.656 304.88L517.35 289.252L518.061 328.129Z" fill="#1B1B1B"/>
<path d="M556.739 371.282L537.045 386.91L536.334 348.033L556.039 332.395L556.739 371.282Z" fill="#1B1B1B"/>
<path d="M556.039 332.394L536.334 348.033L498.366 343.768L518.061 328.129L556.039 332.394Z" fill="#191919"/>
<path d="M323.979 73.4997L304.274 89.1383L303.563 50.2612L323.268 34.6226L323.979 73.4997Z" fill="#1B1B1B"/>
<path d="M594.697 375.537L575.002 391.176L537.045 386.91L556.74 371.282L594.697 375.537Z" fill="#191919"/>
<path d="M595.407 414.435L575.702 430.063L575.002 391.175L594.697 375.537L595.407 414.435Z" fill="#1B1B1B"/>
<path d="M362.657 116.663L342.952 132.291L342.241 93.4033L361.946 77.7646L362.657 116.663Z" fill="#1B1B1B"/>
<path d="M361.946 77.7646L342.241 93.4032L304.274 89.1382L323.979 73.4995L361.946 77.7646Z" fill="#191919"/>
<path d="M633.375 418.7L613.68 434.328L575.702 430.063L595.408 414.435L633.375 418.7Z" fill="#5E2FEA"/>
<path d="M634.086 457.587L614.391 473.226L613.68 434.328L633.375 418.7L634.086 457.587Z" fill="#6633FF"/>
<path d="M575.702 430.062L613.68 434.328L614.391 473.226L576.413 468.96L575.702 430.062Z" fill="#5B2DE2"/>
<path d="M400.614 120.917L380.92 136.556L342.952 132.291L362.657 116.663L400.614 120.917Z" fill="#191919"/>
<path d="M401.325 159.815L381.631 175.443L380.92 136.556L400.614 120.917L401.325 159.815Z" fill="#1B1B1B"/>
<path d="M439.293 164.081L419.588 179.709L381.631 175.444L401.325 159.815L439.293 164.081Z" fill="#191919"/>
<path d="M440.004 202.947L420.298 218.585L419.588 179.708L439.293 164.08L440.004 202.947Z" fill="#1B1B1B"/>
<path d="M478.672 246.099L458.977 261.738L458.266 222.851L477.961 207.212L478.672 246.099Z" fill="#1B1B1B"/>
<path d="M477.961 207.212L458.266 222.851L420.299 218.585L440.004 202.947L477.961 207.212Z" fill="#191919"/>
<path d="M517.35 289.252L497.656 304.881L496.945 266.003L516.639 250.365L517.35 289.252Z" fill="#1B1B1B"/>
<path d="M516.639 250.365L496.945 266.003L458.977 261.738L478.672 246.1L516.639 250.365Z" fill="#191919"/>
<path d="M556.039 332.395L536.334 348.033L535.623 309.146L555.328 293.518L556.039 332.395Z" fill="#1B1B1B"/>
<path d="M555.328 293.517L535.623 309.145L497.656 304.88L517.35 289.252L555.328 293.517Z" fill="#191919"/>
<path d="M593.986 336.66L574.291 352.288L536.334 348.033L556.039 332.395L593.986 336.66Z" fill="#191919"/>
<path d="M594.697 375.537L575.002 391.175L574.291 352.288L593.986 336.66L594.697 375.537Z" fill="#1B1B1B"/>
<path d="M361.946 77.7648L342.241 93.4034L341.541 54.5159L361.235 38.8877L361.946 77.7648Z" fill="#1B1B1B"/>
<path d="M632.664 379.802L612.97 395.44L575.002 391.175L594.697 375.537L632.664 379.802Z" fill="#31C563"/>
<path d="M575.002 391.175L612.97 395.44L613.68 434.328L575.702 430.063L575.002 391.175Z" fill="#2FBF60"/>
<path d="M633.375 418.7L613.681 434.328L612.97 395.44L632.664 379.802L633.375 418.7Z" fill="#3BEE77"/>
<path d="M399.904 82.0297L380.209 97.6684L342.241 93.4033L361.946 77.7646L399.904 82.0297Z" fill="#191919"/>
<path d="M400.614 120.917L380.92 136.556L380.209 97.6684L399.903 82.0298L400.614 120.917Z" fill="#1B1B1B"/>
<path d="M439.293 164.08L419.588 179.708L418.877 140.821L438.582 125.182L439.293 164.08Z" fill="#1B1B1B"/>
<path d="M438.582 125.182L418.877 140.821L380.92 136.556L400.614 120.917L438.582 125.182Z" fill="#191919"/>
<path d="M477.25 168.335L457.555 183.973L419.588 179.708L439.293 164.08L477.25 168.335Z" fill="#191919"/>
<path d="M477.961 207.212L458.266 222.851L457.555 183.974L477.25 168.335L477.961 207.212Z" fill="#1B1B1B"/>
<path d="M516.639 250.365L496.945 266.003L496.234 227.116L515.929 211.477L516.639 250.365Z" fill="#1B1B1B"/>
<path d="M515.929 211.477L496.234 227.116L477.961 207.212L515.929 211.477Z" fill="#191919"/>
<path d="M555.328 293.517L535.623 309.146L534.912 270.269L554.617 254.63L555.328 293.517Z" fill="#1B1B1B"/>
<path d="M554.618 254.63L534.912 270.268L496.945 266.003L516.639 250.365L554.618 254.63Z" fill="#191919"/>
<path d="M593.275 297.772L573.58 313.411L535.623 309.146L555.328 293.518L593.275 297.772Z" fill="#191919"/>
<path d="M593.986 336.66L574.291 352.288L573.58 313.411L593.275 297.772L593.986 336.66Z" fill="#1B1B1B"/>
<path d="M632.664 379.802L612.97 395.441L612.259 356.553L631.953 340.925L632.664 379.802Z" fill="#41C784"/>
<path d="M631.954 340.925L612.259 356.553L574.291 352.288L593.986 336.66L631.954 340.925Z" fill="#35A06B"/>
<path d="M399.904 82.0294L380.209 97.6681L379.498 58.7805L399.193 43.1523L399.904 82.0294Z" fill="#1B1B1B"/>
<path d="M399.193 43.1528L379.498 58.781L341.541 54.5159L361.235 38.8877L399.193 43.1528Z" fill="#191919"/>
<path d="M438.582 125.182L418.877 140.821L418.166 101.934L437.871 86.2949L438.582 125.182Z" fill="#1B1B1B"/>
<path d="M437.871 86.2949L418.166 101.934L380.209 97.6684L399.903 82.0298L437.871 86.2949Z" fill="#191919"/>
<path d="M476.539 129.447L456.845 145.086L418.877 140.821L438.582 125.182L476.539 129.447Z" fill="#191919"/>
<path d="M477.25 168.335L457.555 183.973L456.844 145.086L476.539 129.447L477.25 168.335Z" fill="#1B1B1B"/>
<path d="M515.928 211.477L496.234 227.116L495.523 188.239L515.228 172.6L515.928 211.477Z" fill="#1B1B1B"/>
<path d="M515.228 172.6L495.523 188.239L457.555 183.974L477.25 168.335L515.228 172.6Z" fill="#191919"/>
<path d="M553.907 215.742L534.201 231.37L515.928 211.477L553.907 215.742Z" fill="#191919"/>
<path d="M554.617 254.63L534.912 270.268L534.201 231.37L553.907 215.742L554.617 254.63Z" fill="#1B1B1B"/>
<path d="M593.275 297.772L573.58 313.41L572.87 274.533L592.564 258.895L593.275 297.772Z" fill="#1B1B1B"/>
<path d="M592.564 258.895L572.869 274.534L534.912 270.269L554.617 254.63L592.564 258.895Z" fill="#191919"/>
<path d="M631.953 340.925L612.259 356.553L611.548 317.676L631.253 302.037L631.953 340.925Z" fill="#41C784"/>
<path d="M631.253 302.037L611.548 317.676L573.58 313.411L593.275 297.772L631.253 302.037Z" fill="#35A06B"/>
<path d="M399.193 43.1527L379.498 58.7809L378.787 19.9038L398.492 4.26514L399.193 43.1527Z" fill="#1B1B1B"/>
<path d="M437.16 47.4174L417.466 63.0456L379.498 58.7805L399.193 43.1523L437.16 47.4174Z" fill="#191919"/>
<path d="M437.871 86.2946L418.166 101.933L417.466 63.0457L437.16 47.4175L437.871 86.2946Z" fill="#1B1B1B"/>
<path d="M476.539 129.447L456.844 145.086L456.134 106.188L475.828 90.5596L476.539 129.447Z" fill="#1B1B1B"/>
<path d="M475.828 90.56L456.134 106.188L418.166 101.934L437.871 86.2949L475.828 90.56Z" fill="#191919"/>
<path d="M515.228 172.6L495.523 188.239L494.812 149.341L514.517 133.712L515.228 172.6Z" fill="#1B1B1B"/>
<path d="M514.517 133.712L494.812 149.341L456.844 145.086L476.539 129.447L514.517 133.712Z" fill="#191919"/>
<path d="M553.196 176.865L533.491 192.504L495.523 188.239L515.228 172.6L553.196 176.865Z" fill="#191919"/>
<path d="M553.907 215.742L534.202 231.371L533.491 192.504L553.196 176.865L553.907 215.742Z" fill="#1B1B1B"/>
<path d="M592.564 258.895L572.87 274.534L572.159 235.636L591.853 220.007L592.564 258.895Z" fill="#1B1B1B"/>
<path d="M591.853 220.007L572.159 235.635L534.201 231.37L553.907 215.742L591.853 220.007Z" fill="#191919"/>
<path d="M631.253 302.037L611.548 317.676L610.837 278.788L630.542 263.16L631.253 302.037Z" fill="#41C784"/>
<path d="M630.542 263.16L610.837 278.788L572.87 274.533L592.564 258.895L630.542 263.16Z" fill="#35A06B"/>
<path d="M612.259 356.552L611.548 317.675L610.837 278.788L572.87 274.533L573.58 313.41L574.291 352.287L575.002 391.175L612.97 395.44L612.259 356.552Z" fill="#339B68"/>
<path d="M437.16 47.4178L417.466 63.046L416.755 24.1585L436.45 8.53027L437.16 47.4178Z" fill="#3C3C3C"/>
<path d="M191.092 115.241L229.06 119.506L248.754 103.867L210.787 99.6021L191.092 115.241Z" fill="#191919"/>
<path d="M285.311 30.3574L265.616 45.9961L303.563 50.2612L341.541 54.5158L361.235 38.8876L323.268 34.6225L285.311 30.3574Z" fill="#191919"/>
<path d="M398.492 4.26509L360.525 0L340.83 15.6386L378.787 19.9037L416.755 24.1584L436.45 8.53017L398.492 4.26509Z" fill="#191919"/>
<path d="M437.16 47.4175L417.466 63.0457L455.423 67.3108L475.117 51.6721L437.16 47.4175Z" fill="#191919"/>
<path d="M475.828 90.5599L456.134 106.188L455.423 67.311L475.118 51.6724L475.828 90.5599Z" fill="#1B1B1B"/>
<path d="M514.517 133.712L494.812 149.34L494.101 110.453L513.806 94.8247L514.517 133.712Z" fill="#1B1B1B"/>
<path d="M513.806 94.8247L494.101 110.453L456.134 106.188L475.828 90.5596L513.806 94.8247Z" fill="#191919"/>
<path d="M552.485 137.977L532.79 153.606L494.812 149.341L514.517 133.712L552.485 137.977Z" fill="#191919"/>
<path d="M553.196 176.865L533.491 192.504L532.79 153.606L552.485 137.978L553.196 176.865Z" fill="#1B1B1B"/>
<path d="M538.456 464.706L576.413 468.961L575.702 430.073L574.992 391.186L574.281 352.298L573.57 313.421L572.859 274.533L572.148 235.646L571.448 196.769L533.491 192.504L532.78 153.616L494.812 149.351L494.101 110.463L456.123 106.146L455.423 67.2586L417.455 63.004L416.744 24.1164L378.787 19.8513L340.82 15.5967L341.53 54.4738L303.563 50.2087L265.606 45.9436L266.316 84.8311L228.349 80.5661L229.06 119.454L191.082 115.199L191.792 154.087L192.503 192.953L193.214 231.851L193.925 270.728L194.636 309.616L195.347 348.493L196.057 387.391L196.758 426.278L197.469 465.156L235.447 469.421L236.158 508.308L274.125 512.573L274.836 551.45L312.783 555.715L350.792 560.022L388.749 564.287L426.717 568.542L464.674 572.807L463.963 533.93L501.942 538.195L501.231 499.297L539.198 503.562L538.456 464.706Z" fill="#272727"/>
<path d="M591.853 220.007L572.159 235.635L571.448 196.769L591.153 181.13L591.853 220.007Z" fill="#3C3C3C"/>
<path d="M591.153 181.13L571.448 196.769L533.491 192.504L553.196 176.865L591.153 181.13Z" fill="#191919"/>
<path d="M630.542 263.16L610.837 278.788L610.126 239.901L629.831 224.272L630.542 263.16Z" fill="#009F50"/>
<path d="M629.831 224.272L610.126 239.901L572.159 235.636L591.853 220.007L629.831 224.272Z" fill="#005B2E"/>
<path d="M572.159 235.635L610.126 239.9L610.837 278.788L572.87 274.533L572.159 235.635Z" fill="#00783B"/>
<path d="M513.806 94.8251L494.101 110.453L493.39 71.5761L513.096 55.9375L513.806 94.8251Z" fill="#669AFF"/>
<path d="M455.423 67.311L493.39 71.5761L494.101 110.453L456.134 106.188L455.423 67.311Z" fill="#5B88E2"/>
<path d="M513.096 55.9374L493.39 71.5761L455.423 67.311L475.118 51.6724L513.096 55.9374Z" fill="#3466CA"/>
<path d="M551.774 99.0793L532.079 114.718L494.101 110.453L513.806 94.8247L551.774 99.0793Z" fill="#00A3CA"/>
<path d="M552.485 137.978L532.79 153.606L532.079 114.718L551.774 99.0796L552.485 137.978Z" fill="#00CDFF"/>
<path d="M494.101 110.453L532.079 114.718L532.79 153.606L494.812 149.341L494.101 110.453Z" fill="#00B6E2"/>
<path d="M591.153 181.13L571.448 196.769L570.737 157.871L590.442 142.243L591.153 181.13Z" fill="#509F9F"/>
<path d="M590.442 142.243L570.737 157.871L532.79 153.606L552.485 137.978L590.442 142.243Z" fill="#215B5B"/>
<path d="M532.79 153.605L570.737 157.871L571.448 196.769L533.491 192.503L532.79 153.605Z" fill="#3B7878"/>
<path style="mix-blend-mode:multiply" d="M614.381 473.216L611.088 294.855L418.218 101.965C418.218 101.965 241.688 310.494 239.262 311.038C238.876 311.121 248.671 319.578 265.397 333.701L234.036 424.596L415.49 606.102L465.354 611.705L464.643 572.807L502.621 577.072L501.91 538.195L539.878 542.46L539.167 503.562L577.124 507.828L576.413 468.95L614.381 473.216Z" fill="url(#paint0_radial)"/>
<path d="M209.396 135.145L247.374 139.41L267.069 123.771L229.101 119.506L209.396 135.145Z" fill="#191919"/>
<path d="M266.358 84.894L246.664 100.522L398.524 117.583L418.218 101.944L266.358 84.894Z" fill="#191919"/>
<path d="M418.929 140.821L399.234 156.46L437.192 160.725L456.886 145.086L418.929 140.821Z" fill="#191919"/>
<path d="M457.597 183.984L437.902 199.613L475.87 203.878L495.575 188.249L457.597 183.984Z" fill="#191919"/>
<path d="M496.286 227.126L476.581 242.755L514.548 247.02L534.243 231.392L496.286 227.126Z" fill="#191919"/>
<path d="M405.622 506.427L406.332 545.314L426.027 529.686L425.316 490.788L405.622 506.427Z" fill="#5A5A5A"/>
<path d="M442.868 471.804L443.579 510.692L463.284 495.053L462.573 456.176L442.868 471.804Z" fill="#5A5A5A"/>
<path d="M480.135 437.192L480.846 476.069L500.541 460.441L499.83 421.554L480.135 437.192Z" fill="#5A5A5A"/>
<path d="M418.218 101.944L398.523 117.582L399.234 156.46L418.929 140.821L418.218 101.944Z" fill="#5A5A5A"/>
<path d="M456.886 145.086L437.192 160.725L437.902 199.612L457.597 183.984L456.886 145.086Z" fill="#5A5A5A"/>
<path d="M495.575 188.249L475.87 203.877L476.581 242.754L496.286 227.126L495.575 188.249Z" fill="#5A5A5A"/>
<path d="M534.243 231.392L514.549 247.02L518.092 441.458L537.797 425.819L534.243 231.392Z" fill="#5A5A5A"/>
<path d="M480.846 476.07L442.878 471.804L443.579 510.682L405.611 506.427L406.322 545.314L394.948 544.039L292.44 532.519L291.719 493.632L253.761 489.367L253.061 450.489L215.083 446.224L209.396 135.134L247.364 139.4L246.663 100.522L398.523 117.572L399.234 156.46L437.202 160.715L437.892 199.613L475.88 203.878L476.591 242.755L514.548 247.02L515.437 295.953L518.103 441.447L480.125 437.182L480.846 476.07Z" fill="#2E2E2E"/>
<path style="mix-blend-mode:multiply" opacity="0.5" d="M480.846 476.069L442.878 471.804L443.579 510.681L405.611 506.427L406.322 545.314L394.948 544.039L310.41 459.5L312.657 457.263L271.303 415.909L273.655 413.776L232.624 372.756L348.294 337.935L340.454 330.105L420.299 200.814L515.437 295.953L518.103 441.447L480.125 437.182L480.846 476.069Z" fill="url(#paint1_linear)"/>
<path d="M212.208 272.903L250.166 277.168L269.871 261.529L231.903 257.264L212.208 272.903Z" fill="#191919"/>
<path d="M249.455 238.27L287.433 242.535L307.128 226.907L269.16 222.642L249.455 238.27Z" fill="#191919"/>
<path d="M306.417 188.03L286.722 203.668L400.604 216.453L420.309 200.815L306.417 188.03Z" fill="#191919"/>
<path d="M421.01 239.692L401.315 255.331L439.283 259.585L458.988 243.957L421.01 239.692Z" fill="#191919"/>
<path d="M404.869 449.758L405.57 488.645L425.275 473.017L424.564 434.119L404.869 449.758Z" fill="#636363"/>
<path d="M420.309 200.814L400.604 216.453L401.315 255.33L421.01 239.692L420.309 200.814Z" fill="#636363"/>
<path d="M458.988 243.957L439.282 259.585L442.837 454.023L462.531 438.384L458.988 243.957Z" fill="#636363"/>
<path d="M404.859 449.747L405.58 488.645L363.786 483.952L291.688 475.85L290.987 436.963L253.009 432.697L252.288 393.81L214.331 389.545L212.208 272.893L250.166 277.158L249.455 238.27L287.433 242.535L286.722 203.658L400.614 216.453L401.325 255.32L439.293 259.585L441.112 359.658L442.837 454.012L404.859 449.747Z" fill="#373737"/>
<path style="mix-blend-mode:multiply" opacity="0.98" d="M404.859 449.747L405.58 488.645L363.786 483.951L296.099 416.264L342.001 393.548L304.723 356.281L393.694 312.24L440.809 359.354L441.112 359.657L442.837 454.012L404.859 449.747Z" fill="url(#paint2_radial)"/>
<path d="M399.715 322.537C419.483 362.156 403.447 408.769 379.55 422.191C340.935 443.872 299.13 432.749 279.363 393.13C259.595 353.511 269.254 300.072 307.932 278.694C333.105 264.833 379.958 282.896 399.715 322.537Z" fill="url(#paint3_radial)"/>
<path d="M330.366 419.745C345.51 419.745 357.786 409.729 357.786 397.374C357.786 385.019 345.51 375.003 330.366 375.003C315.222 375.003 302.946 385.019 302.946 397.374C302.946 409.729 315.222 419.745 330.366 419.745Z" fill="url(#paint4_radial)"/>
<path d="M130.172 159.1L109.871 175.209L109.139 135.13L129.44 119.021L130.172 159.1Z" fill="#E400FF"/>
<path d="M129.44 119.02L109.139 135.129L70.0111 130.739L90.3121 114.63L129.44 119.02Z" fill="#BB00D0"/>
<path d="M70.0111 130.739L109.139 135.13L109.871 175.209L70.7428 170.819L70.0111 130.739Z" fill="#D100ED"/>
<path d="M31.4372 104.908L22.5202 111.996L22.1962 94.3711L31.1236 87.2939L31.4372 104.908Z" fill="#FFF300"/>
<path d="M31.1236 87.2938L22.1962 94.3709L5 92.4474L13.917 85.3599L31.1236 87.2938Z" fill="#CBC200"/>
<path d="M5 92.4473L22.1962 94.3707L22.5203 111.996L5.3136 110.062L5 92.4473Z" fill="#E8DC00"/>
<path d="M129.367 82.4852L117.209 92.134L116.77 68.1429L128.928 58.4941L129.367 82.4852Z" fill="#75FF00"/>
<path d="M128.928 58.4942L116.77 68.1429L93.3436 65.5086L105.501 55.8599L128.928 58.4942Z" fill="#57BE00"/>
<path d="M93.3436 65.5083L116.77 68.1426L117.209 92.1337L93.7827 89.5099L93.3436 65.5083Z" fill="#66DB00"/>
<path d="M152.262 568.899L106.7 604.86L105.049 515.411L150.611 479.45L152.262 568.899Z" fill="#FFFC00"/>
<path d="M150.787 479.663L105.435 515.598L18 505.794L63.3704 469.86L150.787 479.663Z" fill="#D5D200"/>
<path d="M18 506.007L105.616 515.778L107.262 604.86L19.6278 595.089L18 506.007Z" fill="#F2EE00"/>
<path d="M271.878 663.242L251.577 679.351L250.845 639.282L271.146 623.173L271.878 663.242Z" fill="#00BB5E"/>
<path d="M196 619.04L162.59 645.548L161.387 579.605L194.797 553.088L196 619.04Z" fill="#00A5F6"/>
<path d="M194.797 553.088L161.387 579.605L97 572.376L130.41 545.86L194.797 553.088Z" fill="#0077B2"/>
<path d="M97 572.376L161.387 579.605L162.59 645.548L98.2123 638.319L97 572.376Z" fill="#008DCF"/>
<path d="M271.146 623.173L250.845 639.282L211.717 634.892L232.018 618.783L271.146 623.173Z" fill="#00773C"/>
<path d="M211.717 634.892L250.845 639.282L251.577 679.351L212.449 674.96L211.717 634.892Z" fill="#009449"/>
<path d="M63.0336 654.485L50.8761 664.134L50.437 640.143L62.5946 630.494L63.0336 654.485Z" fill="#C800BF"/>
<path d="M62.5947 630.494L50.4371 640.143L27 637.509L39.1576 627.86L62.5947 630.494Z" fill="#84007D"/>
<path d="M27 637.509L50.4371 640.143L50.8761 664.134L27.4391 661.5L27 637.509Z" fill="#A1009B"/>
<defs>
<filter id="filter0_f" x="201.717" y="656.55" width="79.429" height="40.4995" filterUnits="userSpaceOnUse" color-interpolation-filters="sRGB">
<feFlood flood-opacity="0" result="BackgroundImageFix"/>
<feBlend mode="normal" in="SourceGraphic" in2="BackgroundImageFix" result="shape"/>
<feGaussianBlur stdDeviation="5" result="effect1_foregroundBlur"/>
</filter>
<filter id="filter1_f" x="77" y="615.659" width="137.797" height="73.7446" filterUnits="userSpaceOnUse" color-interpolation-filters="sRGB">
<feFlood flood-opacity="0" result="BackgroundImageFix"/>
<feBlend mode="normal" in="SourceGraphic" in2="BackgroundImageFix" result="shape"/>
<feGaussianBlur stdDeviation="10" result="effect1_foregroundBlur"/>
</filter>
<filter id="filter2_f" x="0" y="577.928" width="172.787" height="85.7378" filterUnits="userSpaceOnUse" color-interpolation-filters="sRGB">
<feFlood flood-opacity="0" result="BackgroundImageFix"/>
<feBlend mode="normal" in="SourceGraphic" in2="BackgroundImageFix" result="shape"/>
<feGaussianBlur stdDeviation="10" result="effect1_foregroundBlur"/>
</filter>
<filter id="filter3_f" x="17.439" y="647.121" width="55.5946" height="32.2832" filterUnits="userSpaceOnUse" color-interpolation-filters="sRGB">
<feFlood flood-opacity="0" result="BackgroundImageFix"/>
<feBlend mode="normal" in="SourceGraphic" in2="BackgroundImageFix" result="shape"/>
<feGaussianBlur stdDeviation="5" result="effect1_foregroundBlur"/>
</filter>
<filter id="filter4_f" x="179.036" y="553.189" width="392.656" height="116.093" filterUnits="userSpaceOnUse" color-interpolation-filters="sRGB">
<feFlood flood-opacity="0" result="BackgroundImageFix"/>
<feBlend mode="normal" in="SourceGraphic" in2="BackgroundImageFix" result="shape"/>
<feGaussianBlur stdDeviation="15" result="effect1_foregroundBlur"/>
</filter>
<radialGradient id="paint0_radial" cx="0" cy="0" r="1" gradientUnits="userSpaceOnUse" gradientTransform="translate(379.038 289.953) scale(488.635)">
<stop stop-color="#0F0F0F"/>
<stop offset="0.59" stop-color="white"/>
</radialGradient>
<linearGradient id="paint1_linear" x1="-17241.5" y1="119553" x2="170312" y2="119553" gradientUnits="userSpaceOnUse">
<stop stop-color="#0F0F0F"/>
<stop offset="0.567708" stop-color="#181818" stop-opacity="0"/>
</linearGradient>
<radialGradient id="paint2_radial" cx="0" cy="0" r="1" gradientUnits="userSpaceOnUse" gradientTransform="translate(40480.2 68335.9) scale(30454 36611.1)">
<stop stop-color="#0F0F0F"/>
<stop offset="0.59" stop-color="white"/>
</radialGradient>
<radialGradient id="paint3_radial" cx="0" cy="0" r="1" gradientUnits="userSpaceOnUse" gradientTransform="translate(311.382 324.272) rotate(26.3299) scale(170.873 179.417)">
<stop stop-color="white"/>
<stop offset="0.71" stop-color="#141414"/>
</radialGradient>
<radialGradient id="paint4_radial" cx="0" cy="0" r="1" gradientUnits="userSpaceOnUse" gradientTransform="translate(318.7 383.335) rotate(28.0725) scale(53.3136 45.3165)">
<stop stop-color="#585858"/>
<stop offset="0.57" stop-color="#0F0F0F"/>
</radialGradient>
</defs>
</svg>
