<svg width="18" height="18" viewBox="0 0 18 18" fill="none" xmlns="http://www.w3.org/2000/svg">
<g clip-path="url(#clip0)">
<path d="M0.253893 3.31652L2.20164 4.59752V12.7478L0.167643 14.7548C-0.189357 15.108 0.0618928 15.7178 0.562893 15.7178H4.96464C5.46489 15.7178 5.71764 15.1088 5.35989 14.7548L3.32589 12.7478V6.81377C5.41164 11.2508 7.44489 15.5685 7.39614 15.4703C7.60164 15.8873 8.25189 15.8985 8.42814 15.414L8.42889 15.4125C8.42889 15.4125 8.42964 15.4118 8.42964 15.411C8.91714 14.0663 9.96264 11.1825 9.89589 11.3655C9.93339 11.2613 11.7116 6.18602 11.7394 6.10727V13.437L10.4336 14.7608C10.0834 15.1163 10.3361 15.7185 10.8341 15.7185H17.4379C17.9344 15.7185 18.1879 15.1193 17.8399 14.763L16.5851 13.4783L16.5349 4.52852L17.8331 3.24752C18.1901 2.89427 17.9389 2.28452 17.4379 2.28452C16.9114 2.28452 19.3466 2.28377 12.2854 2.28752C11.5669 2.30852 11.8099 2.95427 9.29589 9.61652L6.21339 2.61977C6.12339 2.41577 5.92089 2.28377 5.69814 2.28377H0.562893C0.00639282 2.28452 -0.211857 3.01127 0.253893 3.31652ZM1.93314 14.5935L2.76339 13.7738L3.59364 14.5935H1.93314ZM12.8644 3.40952H16.0676C15.7084 3.81077 15.4069 3.92777 15.4084 4.29827L15.4616 13.7115C15.4631 14.0685 15.7549 14.1938 16.1021 14.5928H12.1796C12.5674 14.1525 12.8651 14.0318 12.8651 13.6673V3.40952H12.8644ZM5.33139 3.40952L8.74689 11.1608L7.82739 13.746C3.19539 3.90902 3.35814 3.75452 2.44164 3.40952H5.33139Z" fill="#330875"/>
</g>
<defs>
<clipPath id="clip0">
<rect width="18" height="18" fill="white"/>
</clipPath>
</defs>
</svg>
